# Blender v2.83.3 OBJ File: 'coin.blend'
# www.blender.org
mtllib coin.mtl
o Circle_Circle.001
v -0.000000 2.011230 0.000197
v -0.500924 1.877007 0.000197
v -0.867627 1.510305 0.000197
v -1.001849 1.009381 0.000197
v -0.867627 0.508456 0.000197
v -0.500925 0.141754 0.000197
v -0.000000 0.007532 0.000197
v 0.500924 0.141754 0.000197
v 0.867626 0.508456 0.000197
v 1.001849 1.009380 0.000197
v 0.867627 1.510305 0.000197
v 0.500925 1.877007 0.000197
v -0.000000 2.011230 -0.212837
v -0.500924 1.877007 -0.212837
v -0.867627 1.510305 -0.212837
v -1.001849 1.009381 -0.212837
v -0.867627 0.508456 -0.212837
v -0.500925 0.141754 -0.212837
v -0.000000 0.007532 -0.212837
v 0.500924 0.141754 -0.212837
v 0.867626 0.508456 -0.212837
v 1.001849 1.009380 -0.212837
v 0.867627 1.510305 -0.212837
v 0.500925 1.877007 -0.212837
v 0.000000 1.825405 -0.209866
v -0.408012 1.716078 -0.209866
v -0.706697 1.417393 -0.209866
v -0.816024 1.009381 -0.209866
v -0.706697 0.601369 -0.209866
v -0.408012 0.302683 -0.209866
v -0.000000 0.193357 -0.209866
v 0.408012 0.302683 -0.209866
v 0.706697 0.601369 -0.209866
v 0.816024 1.009380 -0.209866
v 0.706698 1.417392 -0.209866
v 0.408012 1.716078 -0.209866
v 0.000000 1.830987 -0.004918
v -0.410803 1.720913 -0.004918
v -0.711532 1.420184 -0.004918
v -0.821606 1.009381 -0.004918
v -0.711532 0.598578 -0.004918
v -0.410803 0.297849 -0.004918
v -0.000000 0.187774 -0.004918
v 0.410803 0.297849 -0.004918
v 0.711532 0.598577 -0.004918
v 0.821606 1.009380 -0.004918
v 0.711532 1.420184 -0.004918
v 0.410804 1.720912 -0.004918
v 0.000000 1.830987 -0.044742
v -0.410803 1.720913 -0.044742
v -0.711532 1.420184 -0.044742
v -0.821606 1.009381 -0.044742
v -0.711532 0.598578 -0.044742
v -0.410803 0.297849 -0.044742
v -0.000000 0.187774 -0.044742
v 0.410803 0.297849 -0.044742
v 0.711532 0.598577 -0.044742
v 0.821606 1.009380 -0.044742
v 0.711532 1.420184 -0.044742
v 0.410804 1.720912 -0.044742
v 0.000000 1.005547 0.122065
v 0.001917 1.006060 0.122065
v 0.003320 1.007464 0.122065
v 0.003834 1.009381 0.122065
v 0.003320 1.011298 0.122065
v 0.001917 1.012701 0.122065
v 0.000000 1.013215 0.122065
v -0.001917 1.012701 0.122065
v -0.003320 1.011298 0.122065
v -0.003834 1.009381 0.122065
v -0.003320 1.007464 0.122065
v -0.001917 1.006060 0.122065
vt 0.000000 0.000000
vt 0.000000 0.000000
vt 0.000000 0.000000
vt 0.000000 0.000000
vt 0.000000 0.000000
vt 0.000000 0.000000
vt 0.000000 0.000000
vt 0.000000 0.000000
vt 0.000000 0.000000
vt 0.000000 0.000000
vt 0.000000 0.000000
vt 0.000000 0.000000
vt 0.000000 0.000000
vt 0.000000 0.000000
vt 0.000000 0.000000
vt 0.000000 0.000000
vt 0.000000 0.000000
vt 0.000000 0.000000
vt 0.000000 0.000000
vt 0.000000 0.000000
vt 0.000000 0.000000
vt 0.000000 0.000000
vt 0.000000 0.000000
vt 0.000000 0.000000
vt 0.000000 0.000000
vt 0.000000 0.000000
vt 0.000000 0.000000
vt 0.000000 0.000000
vt 0.000000 0.000000
vt 0.000000 0.000000
vt 0.000000 0.000000
vt 0.000000 0.000000
vt 0.000000 0.000000
vt 0.000000 0.000000
vt 0.000000 0.000000
vt 0.000000 0.000000
vt 0.000000 0.000000
vt 0.000000 0.000000
vt 0.000000 0.000000
vt 0.000000 0.000000
vt 0.000000 0.000000
vt 0.000000 0.000000
vt 0.000000 0.000000
vt 0.000000 0.000000
vt 0.000000 0.000000
vt 0.000000 0.000000
vt 0.000000 0.000000
vt 0.000000 0.000000
vt 0.000000 0.000000
vt 0.000000 0.000000
vt 0.000000 0.000000
vt 0.000000 0.000000
vt 0.000000 0.000000
vt 0.000000 0.000000
vt 0.000000 0.000000
vt 0.000000 0.000000
vt 0.000000 0.000000
vt 0.000000 0.000000
vt 0.000000 0.000000
vt 0.000000 0.000000
vt 0.000000 0.000000
vt 0.000000 0.000000
vt 0.000000 0.000000
vt 0.000000 0.000000
vt 0.000000 0.000000
vt 0.000000 0.000000
vt 0.000000 0.000000
vt 0.000000 0.000000
vt 0.000000 0.000000
vt 0.000000 0.000000
vt 0.000000 0.000000
vt 0.000000 0.000000
vn -0.9659 -0.2588 0.0000
vn 0.7071 0.7071 0.0000
vn -0.2588 0.9659 0.0000
vn 0.7071 -0.7071 0.0000
vn -0.7071 -0.7071 0.0000
vn 0.2588 0.9659 0.0000
vn -0.7071 0.7071 0.0000
vn 0.9659 -0.2588 0.0000
vn -0.2588 -0.9659 0.0000
vn -0.9659 0.2588 0.0000
vn 0.9659 0.2588 0.0000
vn 0.2588 -0.9659 0.0000
vn -0.0160 0.0043 -0.9999
vn 0.0043 0.0160 -0.9999
vn 0.0160 -0.0043 -0.9999
vn -0.0160 -0.0043 -0.9999
vn -0.0043 0.0160 -0.9999
vn 0.0160 0.0043 -0.9999
vn -0.0117 -0.0117 -0.9999
vn 0.0043 -0.0160 -0.9999
vn -0.0117 0.0117 -0.9999
vn 0.0117 0.0117 -0.9999
vn -0.0043 -0.0160 -0.9999
vn 0.0117 -0.0117 -0.9999
vn 0.0284 0.0076 0.9996
vn -0.0208 -0.0208 0.9996
vn 0.0076 -0.0284 0.9996
vn -0.0208 0.0208 0.9996
vn 0.0208 0.0208 0.9996
vn -0.0076 -0.0284 0.9996
vn 0.0208 -0.0208 0.9996
vn -0.0284 0.0076 0.9996
vn 0.0076 0.0284 0.9996
vn 0.0284 -0.0076 0.9996
vn -0.0284 -0.0076 0.9996
vn -0.0076 0.0284 0.9996
vn -0.1448 -0.1448 0.9788
vn 0.0530 0.1978 0.9788
vn -0.1448 0.1448 0.9788
vn 0.1978 -0.0530 0.9788
vn -0.0530 -0.1978 0.9788
vn -0.1978 0.0530 0.9788
vn 0.1978 0.0530 0.9788
vn 0.0530 -0.1978 0.9788
vn -0.1978 -0.0530 0.9788
vn 0.1448 0.1448 0.9788
vn -0.0530 0.1978 0.9788
vn 0.1448 -0.1448 0.9788
usemtl None
s off
f 5/1/1 4/2/1 16/3/1 17/4/1
f 12/5/2 11/6/2 23/7/2 24/8/2
f 2/9/3 1/10/3 13/11/3 14/12/3
f 9/13/4 8/14/4 20/15/4 21/16/4
f 6/17/5 5/1/5 17/4/5 18/18/5
f 1/10/6 12/5/6 24/8/6 13/11/6
f 3/19/7 2/9/7 14/12/7 15/20/7
f 10/21/8 9/13/8 21/16/8 22/22/8
f 7/23/9 6/17/9 18/18/9 19/24/9
f 4/2/10 3/19/10 15/20/10 16/3/10
f 11/6/11 10/21/11 22/22/11 23/7/11
f 8/14/12 7/23/12 19/24/12 20/15/12
f 22/22/13 21/16/13 33/25/13 34/26/13
f 19/24/14 18/18/14 30/27/14 31/28/14
f 16/3/15 15/20/15 27/29/15 28/30/15
f 23/7/16 22/22/16 34/26/16 35/31/16
f 20/15/17 19/24/17 31/28/17 32/32/17
f 17/4/18 16/3/18 28/30/18 29/33/18
f 24/8/19 23/7/19 35/31/19 36/34/19
f 14/12/20 13/11/20 25/35/20 26/36/20
f 21/16/21 20/15/21 32/32/21 33/25/21
f 18/18/22 17/4/22 29/33/22 30/27/22
f 13/11/23 24/8/23 36/34/23 25/35/23
f 15/20/24 14/12/24 26/36/24 27/29/24
f 4/2/25 5/1/25 41/37/25 40/38/25
f 11/6/26 12/5/26 48/39/26 47/40/26
f 1/10/27 2/9/27 38/41/27 37/42/27
f 8/14/28 9/13/28 45/43/28 44/44/28
f 5/1/29 6/17/29 42/45/29 41/37/29
f 12/5/30 1/10/30 37/42/30 48/39/30
f 2/9/31 3/19/31 39/46/31 38/41/31
f 9/13/32 10/21/32 46/47/32 45/43/32
f 6/17/33 7/23/33 43/48/33 42/45/33
f 3/19/34 4/2/34 40/38/34 39/46/34
f 10/21/35 11/6/35 47/40/35 46/47/35
f 7/23/36 8/14/36 44/44/36 43/48/36
f 48/39/9 37/42/9 49/49/9 60/50/9
f 38/41/4 39/46/4 51/51/4 50/52/4
f 45/43/10 46/47/10 58/53/10 57/54/10
f 42/45/6 43/48/6 55/55/6 54/56/6
f 39/46/8 40/38/8 52/57/8 51/51/8
f 46/47/1 47/40/1 59/58/1 58/53/1
f 43/48/3 44/44/3 56/59/3 55/55/3
f 40/38/11 41/37/11 53/60/11 52/57/11
f 47/40/5 48/39/5 60/50/5 59/58/5
f 37/42/12 38/41/12 50/52/12 49/49/12
f 44/44/7 45/43/7 57/54/7 56/59/7
f 41/37/2 42/45/2 54/56/2 53/60/2
f 53/60/37 54/56/37 66/61/37 65/62/37
f 60/50/38 49/49/38 61/63/38 72/64/38
f 50/52/39 51/51/39 63/65/39 62/66/39
f 57/54/40 58/53/40 70/67/40 69/68/40
f 54/56/41 55/55/41 67/69/41 66/61/41
f 51/51/42 52/57/42 64/70/42 63/65/42
f 58/53/43 59/58/43 71/71/43 70/67/43
f 55/55/44 56/59/44 68/72/44 67/69/44
f 52/57/45 53/60/45 65/62/45 64/70/45
f 59/58/46 60/50/46 72/64/46 71/71/46
f 49/49/47 50/52/47 62/66/47 61/63/47
f 56/59/48 57/54/48 69/68/48 68/72/48
o Circle.001_Circle.002
v 0.000000 2.011230 -0.210196
v 0.500924 1.877007 -0.210169
v 0.867627 1.510305 -0.210150
v 1.001849 1.009381 -0.210142
v 0.867627 0.508456 -0.210150
v 0.500925 0.141754 -0.210169
v 0.000000 0.007532 -0.210196
v -0.500924 0.141754 -0.210222
v -0.867626 0.508456 -0.210242
v -1.001849 1.009380 -0.210249
v -0.867627 1.510305 -0.210242
v -0.500925 1.877007 -0.210222
v -0.000011 2.011230 0.002838
v 0.500913 1.877007 0.002865
v 0.867615 1.510305 0.002884
v 1.001838 1.009381 0.002891
v 0.867615 0.508456 0.002884
v 0.500913 0.141754 0.002865
v -0.000011 0.007532 0.002838
v -0.500936 0.141754 0.002811
v -0.867638 0.508456 0.002792
v -1.001860 1.009380 0.002785
v -0.867638 1.510305 0.002792
v -0.500936 1.877007 0.002811
v -0.000011 1.825405 -0.000133
v 0.408001 1.716078 -0.000112
v 0.706686 1.417393 -0.000096
v 0.816013 1.009381 -0.000090
v 0.706686 0.601369 -0.000096
v 0.408001 0.302683 -0.000112
v -0.000011 0.193357 -0.000133
v -0.408023 0.302683 -0.000155
v -0.706708 0.601369 -0.000171
v -0.816035 1.009380 -0.000177
v -0.706709 1.417392 -0.000171
v -0.408024 1.716078 -0.000155
v -0.000000 1.830987 -0.205081
v 0.410803 1.720913 -0.205059
v 0.711532 1.420184 -0.205043
v 0.821606 1.009381 -0.205037
v 0.711532 0.598578 -0.205043
v 0.410803 0.297849 -0.205059
v -0.000000 0.187774 -0.205081
v -0.410803 0.297849 -0.205103
v -0.711532 0.598577 -0.205119
v -0.821607 1.009380 -0.205125
v -0.711532 1.420184 -0.205119
v -0.410804 1.720912 -0.205103
v -0.000002 1.830987 -0.165257
v 0.410801 1.720913 -0.165235
v 0.711530 1.420184 -0.165219
v 0.821604 1.009381 -0.165213
v 0.711530 0.598578 -0.165219
v 0.410801 0.297849 -0.165235
v -0.000002 0.187774 -0.165257
v -0.410805 0.297849 -0.165279
v -0.711534 0.598577 -0.165295
v -0.821609 1.009380 -0.165301
v -0.711535 1.420184 -0.165295
v -0.410806 1.720912 -0.165279
v 0.000006 1.005547 -0.332065
v -0.001911 1.006060 -0.332065
v -0.003314 1.007464 -0.332065
v -0.003828 1.009381 -0.332065
v -0.003314 1.011298 -0.332065
v -0.001911 1.012701 -0.332065
v 0.000006 1.013215 -0.332065
v 0.001923 1.012701 -0.332065
v 0.003327 1.011298 -0.332065
v 0.003840 1.009381 -0.332065
v 0.003327 1.007464 -0.332065
v 0.001923 1.006060 -0.332065
vt 0.000000 0.000000
vt 0.000000 0.000000
vt 0.000000 0.000000
vt 0.000000 0.000000
vt 0.000000 0.000000
vt 0.000000 0.000000
vt 0.000000 0.000000
vt 0.000000 0.000000
vt 0.000000 0.000000
vt 0.000000 0.000000
vt 0.000000 0.000000
vt 0.000000 0.000000
vt 0.000000 0.000000
vt 0.000000 0.000000
vt 0.000000 0.000000
vt 0.000000 0.000000
vt 0.000000 0.000000
vt 0.000000 0.000000
vt 0.000000 0.000000
vt 0.000000 0.000000
vt 0.000000 0.000000
vt 0.000000 0.000000
vt 0.000000 0.000000
vt 0.000000 0.000000
vt 0.000000 0.000000
vt 0.000000 0.000000
vt 0.000000 0.000000
vt 0.000000 0.000000
vt 0.000000 0.000000
vt 0.000000 0.000000
vt 0.000000 0.000000
vt 0.000000 0.000000
vt 0.000000 0.000000
vt 0.000000 0.000000
vt 0.000000 0.000000
vt 0.000000 0.000000
vt 0.000000 0.000000
vt 0.000000 0.000000
vt 0.000000 0.000000
vt 0.000000 0.000000
vt 0.000000 0.000000
vt 0.000000 0.000000
vt 0.000000 0.000000
vt 0.000000 0.000000
vt 0.000000 0.000000
vt 0.000000 0.000000
vt 0.000000 0.000000
vt 0.000000 0.000000
vt 0.000000 0.000000
vt 0.000000 0.000000
vt 0.000000 0.000000
vt 0.000000 0.000000
vt 0.000000 0.000000
vt 0.000000 0.000000
vt 0.000000 0.000000
vt 0.000000 0.000000
vt 0.000000 0.000000
vt 0.000000 0.000000
vt 0.000000 0.000000
vt 0.000000 0.000000
vt 0.000000 0.000000
vt 0.000000 0.000000
vt 0.000000 0.000000
vt 0.000000 0.000000
vt 0.000000 0.000000
vt 0.000000 0.000000
vt 0.000000 0.000000
vt 0.000000 0.000000
vt 0.000000 0.000000
vt 0.000000 0.000000
vt 0.000000 0.000000
vt 0.000000 0.000000
vn 0.0159 0.0043 0.9999
vn -0.0043 0.0160 0.9999
vn -0.0160 -0.0043 0.9999
vn 0.0159 -0.0043 0.9999
vn 0.0042 0.0160 0.9999
vn -0.0160 0.0043 0.9999
vn 0.0117 -0.0117 0.9999
vn -0.0043 -0.0160 0.9999
vn 0.0117 0.0117 0.9999
vn -0.0118 0.0117 0.9999
vn 0.0042 -0.0160 0.9999
vn -0.0118 -0.0117 0.9999
vn -0.0283 0.0076 -0.9996
vn 0.0208 -0.0208 -0.9996
vn -0.0075 -0.0284 -0.9996
vn 0.0208 0.0208 -0.9996
vn -0.0207 0.0208 -0.9996
vn 0.0077 -0.0284 -0.9996
vn -0.0207 -0.0208 -0.9996
vn 0.0284 0.0076 -0.9996
vn -0.0075 0.0284 -0.9996
vn -0.0283 -0.0076 -0.9996
vn 0.0284 -0.0076 -0.9996
vn 0.0077 0.0284 -0.9996
vn 0.2588 -0.9659 0.0000
vn -0.7071 -0.7071 -0.0000
vn 0.9659 0.2588 0.0001
vn -0.2588 0.9659 -0.0000
vn -0.9659 -0.2588 -0.0001
vn 0.9659 -0.2588 0.0001
vn 0.2588 0.9659 0.0000
vn -0.9659 0.2588 -0.0001
vn 0.7071 -0.7071 0.0000
vn -0.2588 -0.9659 -0.0000
vn 0.7071 0.7071 0.0000
vn -0.7071 0.7071 -0.0000
vn 0.1449 -0.1448 -0.9788
vn -0.0529 0.1978 -0.9788
vn 0.1449 0.1448 -0.9788
vn -0.1977 -0.0530 -0.9788
vn 0.0531 -0.1978 -0.9788
vn 0.1979 0.0530 -0.9788
vn -0.1977 0.0530 -0.9788
vn -0.0529 -0.1978 -0.9788
vn 0.1979 -0.0530 -0.9788
vn -0.1447 0.1448 -0.9788
vn 0.0531 0.1978 -0.9788
vn -0.1447 -0.1448 -0.9788
usemtl None
s off
f 94/73/49 93/74/49 105/75/49 106/76/49
f 91/77/50 90/78/50 102/79/50 103/80/50
f 88/81/51 87/82/51 99/83/51 100/84/51
f 95/85/52 94/73/52 106/76/52 107/86/52
f 92/87/53 91/77/53 103/80/53 104/88/53
f 89/89/54 88/81/54 100/84/54 101/90/54
f 96/91/55 95/85/55 107/86/55 108/92/55
f 86/93/56 85/94/56 97/95/56 98/96/56
f 93/74/57 92/87/57 104/88/57 105/75/57
f 90/78/58 89/89/58 101/90/58 102/79/58
f 85/94/59 96/91/59 108/92/59 97/95/59
f 87/82/60 86/93/60 98/96/60 99/83/60
f 76/97/61 77/98/61 113/99/61 112/100/61
f 83/101/62 84/102/62 120/103/62 119/104/62
f 73/105/63 74/106/63 110/107/63 109/108/63
f 80/109/64 81/110/64 117/111/64 116/112/64
f 77/98/65 78/113/65 114/114/65 113/99/65
f 84/102/66 73/105/66 109/108/66 120/103/66
f 74/106/67 75/115/67 111/116/67 110/107/67
f 81/110/68 82/117/68 118/118/68 117/111/68
f 78/113/69 79/119/69 115/120/69 114/114/69
f 75/115/70 76/97/70 112/100/70 111/116/70
f 82/117/71 83/101/71 119/104/71 118/118/71
f 79/119/72 80/109/72 116/112/72 115/120/72
f 120/103/73 109/108/73 121/121/73 132/122/73
f 110/107/74 111/116/74 123/123/74 122/124/74
f 117/111/75 118/118/75 130/125/75 129/126/75
f 114/114/76 115/120/76 127/127/76 126/128/76
f 111/116/77 112/100/77 124/129/77 123/123/77
f 118/118/78 119/104/78 131/130/78 130/125/78
f 115/120/79 116/112/79 128/131/79 127/127/79
f 112/100/80 113/99/80 125/132/80 124/129/80
f 119/104/81 120/103/81 132/122/81 131/130/81
f 109/108/82 110/107/82 122/124/82 121/121/82
f 116/112/83 117/111/83 129/126/83 128/131/83
f 113/99/84 114/114/84 126/128/84 125/132/84
f 125/132/85 126/128/85 138/133/85 137/134/85
f 132/122/86 121/121/86 133/135/86 144/136/86
f 122/124/87 123/123/87 135/137/87 134/138/87
f 129/126/88 130/125/88 142/139/88 141/140/88
f 126/128/89 127/127/89 139/141/89 138/133/89
f 123/123/90 124/129/90 136/142/90 135/137/90
f 130/125/91 131/130/91 143/143/91 142/139/91
f 127/127/92 128/131/92 140/144/92 139/141/92
f 124/129/93 125/132/93 137/134/93 136/142/93
f 131/130/94 132/122/94 144/136/94 143/143/94
f 121/121/95 122/124/95 134/138/95 133/135/95
f 128/131/96 129/126/96 141/140/96 140/144/96
