# Blender v2.81 (sub 16) OBJ File: 'doubleConeSS.blend'
# www.blender.org
mtllib DoubleCone.mtl
o Circle
v -0.511869 0.000000 -2.008707
v -0.511869 0.391879 -1.970111
v -0.511869 0.768699 -1.855803
v -0.511869 1.115978 -1.670179
v -0.511870 1.420370 -1.420370
v -0.511870 1.670179 -1.115978
v -0.511870 1.855803 -0.768699
v -0.511870 1.970111 -0.391879
v -0.511870 2.008707 -0.000000
v -0.511870 1.970111 0.391879
v -0.511870 1.855804 0.768699
v -0.511870 1.670179 1.115978
v -0.511870 1.420370 1.420370
v -0.511869 1.115978 1.670179
v -0.511869 0.768699 1.855804
v -0.511869 0.391879 1.970111
v -0.511869 -0.000001 2.008707
v -0.511869 -0.391880 1.970110
v -0.511869 -0.768700 1.855803
v -0.511869 -1.115979 1.670178
v -0.511869 -1.420372 1.420370
v -0.511869 -1.670180 1.115977
v -0.511869 -1.855804 0.768698
v -0.511869 -1.970111 0.391878
v -0.511869 -2.008707 -0.000002
v -0.511869 -1.970110 -0.391881
v -0.511869 -1.855803 -0.768701
v -0.511869 -1.670178 -1.115980
v -0.511869 -1.420369 -1.420372
v -0.511869 -1.115976 -1.670181
v -0.511869 -0.768696 -1.855805
v -0.511869 -0.391876 -1.970111
v 0.488329 -0.000000 -2.008707
v 0.488329 0.391879 -1.970111
v 0.488329 0.768699 -1.855803
v 0.488329 1.115978 -1.670179
v 0.488329 1.420370 -1.420370
v 0.488329 1.670179 -1.115978
v 0.488329 1.855803 -0.768699
v 0.488329 1.970111 -0.391879
v 0.488329 2.008707 -0.000000
v 0.488329 1.970111 0.391879
v 0.488329 1.855804 0.768699
v 0.488329 1.670179 1.115978
v 0.488329 1.420370 1.420370
v 0.488329 1.115978 1.670179
v 0.488329 0.768699 1.855804
v 0.488329 0.391879 1.970111
v 0.488329 -0.000001 2.008707
v 0.488329 -0.391880 1.970110
v 0.488329 -0.768700 1.855803
v 0.488329 -1.115979 1.670178
v 0.488329 -1.420372 1.420370
v 0.488329 -1.670180 1.115977
v 0.488329 -1.855804 0.768698
v 0.488329 -1.970111 0.391878
v 0.488329 -2.008707 -0.000002
v 0.488329 -1.970110 -0.391881
v 0.488329 -1.855803 -0.768701
v 0.488329 -1.670178 -1.115980
v 0.488329 -1.420369 -1.420372
v 0.488329 -1.115976 -1.670181
v 0.488329 -0.768696 -1.855805
v 0.488329 -0.391876 -1.970111
v -1.486852 0.000000 -0.002897
v -1.486852 0.000565 -0.002841
v -1.486852 0.001109 -0.002677
v -1.486852 0.001609 -0.002409
v -1.486852 0.002048 -0.002049
v -1.486852 0.002409 -0.001610
v -1.486852 0.002676 -0.001109
v -1.486852 0.002841 -0.000566
v -1.486852 0.002897 -0.000001
v -1.486852 0.002841 0.000564
v -1.486852 0.002676 0.001108
v -1.486852 0.002409 0.001609
v -1.486852 0.002048 0.002047
v -1.486852 0.001609 0.002408
v -1.486852 0.001109 0.002675
v -1.486852 0.000565 0.002840
v -1.486852 0.000000 0.002896
v -1.486852 -0.000565 0.002840
v -1.486852 -0.001108 0.002675
v -1.486852 -0.001609 0.002408
v -1.486852 -0.002048 0.002047
v -1.486852 -0.002408 0.001609
v -1.486852 -0.002676 0.001108
v -1.486852 -0.002841 0.000564
v -1.486852 -0.002896 -0.000001
v -1.486852 -0.002841 -0.000566
v -1.486852 -0.002676 -0.001109
v -1.486852 -0.002408 -0.001610
v -1.486852 -0.002048 -0.002049
v -1.486852 -0.001609 -0.002409
v -1.486852 -0.001108 -0.002677
v -1.486852 -0.000565 -0.002841
vt 0.000000 0.000000
vt 0.000000 0.000000
vt 0.000000 0.000000
vt 0.000000 0.000000
vt 0.000000 0.000000
vt 0.000000 0.000000
vt 0.000000 0.000000
vt 0.000000 0.000000
vt 0.000000 0.000000
vt 0.000000 0.000000
vt 0.000000 0.000000
vt 0.000000 0.000000
vt 0.000000 0.000000
vt 0.000000 0.000000
vt 0.000000 0.000000
vt 0.000000 0.000000
vt 0.000000 0.000000
vt 0.000000 0.000000
vt 0.000000 0.000000
vt 0.000000 0.000000
vt 0.000000 0.000000
vt 0.000000 0.000000
vt 0.000000 0.000000
vt 0.000000 0.000000
vt 0.000000 0.000000
vt 0.000000 0.000000
vt 0.000000 0.000000
vt 0.000000 0.000000
vt 0.000000 0.000000
vt 0.000000 0.000000
vt 0.000000 0.000000
vt 0.000000 0.000000
vt 0.000000 0.000000
vt 0.000000 0.000000
vt 0.000000 0.000000
vt 0.000000 0.000000
vt 0.000000 0.000000
vt 0.000000 0.000000
vt 0.000000 0.000000
vt 0.000000 0.000000
vt 0.000000 0.000000
vt 0.000000 0.000000
vt 0.000000 0.000000
vt 0.000000 0.000000
vt 0.000000 0.000000
vt 0.000000 0.000000
vt 0.000000 0.000000
vt 0.000000 0.000000
vt 0.000000 0.000000
vt 0.000000 0.000000
vt 0.000000 0.000000
vt 0.000000 0.000000
vt 0.000000 0.000000
vt 0.000000 0.000000
vt 0.000000 0.000000
vt 0.000000 0.000000
vt 0.000000 0.000000
vt 0.000000 0.000000
vt 0.000000 0.000000
vt 0.000000 0.000000
vt 0.000000 0.000000
vt 0.000000 0.000000
vt 0.000000 0.000000
vt 0.000000 0.000000
vt 0.000000 0.000000
vt 0.000000 0.000000
vt 0.000000 0.000000
vt 0.000000 0.000000
vt 0.000000 0.000000
vt 0.000000 0.000000
vt 0.000000 0.000000
vt 0.000000 0.000000
vt 0.000000 0.000000
vt 0.000000 0.000000
vt 0.000000 0.000000
vt 0.000000 0.000000
vt 0.000000 0.000000
vt 0.000000 0.000000
vt 0.000000 0.000000
vt 0.000000 0.000000
vt 0.000000 0.000000
vt 0.000000 0.000000
vt 0.000000 0.000000
vt 0.000000 0.000000
vt 0.000000 0.000000
vt 0.000000 0.000000
vt 0.000000 0.000000
vt 0.000000 0.000000
vt 0.000000 0.000000
vt 0.000000 0.000000
vt 0.000000 0.000000
vt 0.000000 0.000000
vt 0.000000 0.000000
vt 0.000000 0.000000
vt 0.000000 0.000000
vt 0.000000 0.000000
vn 0.0000 -0.2903 -0.9569
vn 0.0000 -0.2903 0.9569
vn 0.0000 0.6344 0.7730
vn 0.0000 -0.0980 -0.9952
vn 0.0000 -0.4714 0.8819
vn 0.0000 0.4714 0.8819
vn 0.0000 0.0980 -0.9952
vn 0.0000 -0.6344 0.7730
vn 0.0000 0.2903 0.9569
vn 0.0000 0.2903 -0.9569
vn 0.0000 -0.7730 0.6344
vn 0.0000 0.0980 0.9952
vn 0.0000 0.4714 -0.8819
vn 0.0000 -0.8819 0.4714
vn 0.0000 0.6344 -0.7730
vn 0.0000 -0.9569 0.2903
vn 0.0000 0.7730 -0.6344
vn -0.0000 -0.9952 0.0980
vn 0.0000 0.8819 -0.4714
vn -0.0000 -0.9952 -0.0980
vn 0.0000 0.9569 -0.2903
vn 0.0000 -0.9569 -0.2903
vn 0.0000 0.9952 -0.0980
vn 0.0000 -0.8819 -0.4714
vn 0.0000 0.9952 0.0980
vn 0.0000 -0.7730 -0.6344
vn 0.0000 0.9569 0.2903
vn 0.0000 -0.6344 -0.7730
vn 0.0000 0.8819 0.4714
vn 0.0000 -0.4714 -0.8819
vn 0.0000 -0.0980 0.9952
vn 0.0000 0.7730 0.6344
vn 0.8985 -0.1274 -0.4200
vn 0.8985 -0.1274 0.4200
vn 0.8985 0.2784 0.3393
vn 0.8985 -0.0430 -0.4368
vn 0.8985 -0.2069 0.3871
vn 0.8985 0.2069 0.3871
vn 0.8985 0.0430 -0.4368
vn 0.8985 -0.2784 0.3393
vn 0.8985 0.1274 0.4200
vn 0.8985 0.1274 -0.4200
vn 0.8985 -0.3393 0.2784
vn 0.8985 0.0430 0.4368
vn 0.8985 0.2069 -0.3871
vn 0.8985 -0.3871 0.2069
vn 0.8985 0.2784 -0.3393
vn 0.8985 -0.4200 0.1274
vn 0.8985 0.3393 -0.2784
vn 0.8985 -0.4368 0.0430
vn 0.8985 0.3871 -0.2069
vn 0.8985 -0.4368 -0.0430
vn 0.8985 0.4200 -0.1274
vn 0.8985 -0.4200 -0.1274
vn 0.8985 0.4368 -0.0430
vn 0.8985 -0.3871 -0.2069
vn 0.8985 0.4368 0.0430
vn 0.8985 -0.3393 -0.2784
vn 0.8985 0.4200 0.1274
vn 0.8985 -0.2784 -0.3393
vn 0.8985 0.3871 0.2069
vn 0.8985 -0.2069 -0.3871
vn 0.8985 -0.0430 0.4368
vn 0.8985 0.3393 0.2784
usemtl None
s off
f 16/1/1 15/2/1 47/3/1 48/4/1
f 3/5/2 2/6/2 34/7/2 35/8/2
f 30/9/3 29/10/3 61/11/3 62/12/3
f 17/13/4 16/1/4 48/4/4 49/14/4
f 4/15/5 3/5/5 35/8/5 36/16/5
f 31/17/6 30/9/6 62/12/6 63/18/6
f 18/19/7 17/13/7 49/14/7 50/20/7
f 5/21/8 4/15/8 36/16/8 37/22/8
f 32/23/9 31/17/9 63/18/9 64/24/9
f 19/25/10 18/19/10 50/20/10 51/26/10
f 6/27/11 5/21/11 37/22/11 38/28/11
f 1/29/12 32/23/12 64/24/12 33/30/12
f 20/31/13 19/25/13 51/26/13 52/32/13
f 7/33/14 6/27/14 38/28/14 39/34/14
f 21/35/15 20/31/15 52/32/15 53/36/15
f 8/37/16 7/33/16 39/34/16 40/38/16
f 22/39/17 21/35/17 53/36/17 54/40/17
f 9/41/18 8/37/18 40/38/18 41/42/18
f 23/43/19 22/39/19 54/40/19 55/44/19
f 10/45/20 9/41/20 41/42/20 42/46/20
f 24/47/21 23/43/21 55/44/21 56/48/21
f 11/49/22 10/45/22 42/46/22 43/50/22
f 25/51/23 24/47/23 56/48/23 57/52/23
f 12/53/24 11/49/24 43/50/24 44/54/24
f 26/55/25 25/51/25 57/52/25 58/56/25
f 13/57/26 12/53/26 44/54/26 45/58/26
f 27/59/27 26/55/27 58/56/27 59/60/27
f 14/61/28 13/57/28 45/58/28 46/62/28
f 28/63/29 27/59/29 59/60/29 60/64/29
f 15/2/30 14/61/30 46/62/30 47/3/30
f 2/6/31 1/29/31 33/30/31 34/7/31
f 29/10/32 28/63/32 60/64/32 61/11/32
f 15/2/33 16/1/33 80/65/33 79/66/33
f 2/6/34 3/5/34 67/67/34 66/68/34
f 29/10/35 30/9/35 94/69/35 93/70/35
f 16/1/36 17/13/36 81/71/36 80/65/36
f 3/5/37 4/15/37 68/72/37 67/67/37
f 30/9/38 31/17/38 95/73/38 94/69/38
f 17/13/39 18/19/39 82/74/39 81/71/39
f 4/15/40 5/21/40 69/75/40 68/72/40
f 31/17/41 32/23/41 96/76/41 95/73/41
f 18/19/42 19/25/42 83/77/42 82/74/42
f 5/21/43 6/27/43 70/78/43 69/75/43
f 32/23/44 1/29/44 65/79/44 96/76/44
f 19/25/45 20/31/45 84/80/45 83/77/45
f 6/27/46 7/33/46 71/81/46 70/78/46
f 20/31/47 21/35/47 85/82/47 84/80/47
f 7/33/48 8/37/48 72/83/48 71/81/48
f 21/35/49 22/39/49 86/84/49 85/82/49
f 8/37/50 9/41/50 73/85/50 72/83/50
f 22/39/51 23/43/51 87/86/51 86/84/51
f 9/41/52 10/45/52 74/87/52 73/85/52
f 23/43/53 24/47/53 88/88/53 87/86/53
f 10/45/54 11/49/54 75/89/54 74/87/54
f 24/47/55 25/51/55 89/90/55 88/88/55
f 11/49/56 12/53/56 76/91/56 75/89/56
f 25/51/57 26/55/57 90/92/57 89/90/57
f 12/53/58 13/57/58 77/93/58 76/91/58
f 26/55/59 27/59/59 91/94/59 90/92/59
f 13/57/60 14/61/60 78/95/60 77/93/60
f 27/59/61 28/63/61 92/96/61 91/94/61
f 14/61/62 15/2/62 79/66/62 78/95/62
f 1/29/63 2/6/63 66/68/63 65/79/63
f 28/63/64 29/10/64 93/70/64 92/96/64
o Circle.001
v 0.497978 0.000000 2.008707
v 0.497978 0.391879 1.970111
v 0.497978 0.768699 1.855803
v 0.497978 1.115978 1.670179
v 0.497978 1.420370 1.420370
v 0.497977 1.670179 1.115978
v 0.497977 1.855803 0.768699
v 0.497977 1.970111 0.391879
v 0.497977 2.008707 0.000000
v 0.497977 1.970111 -0.391879
v 0.497977 1.855804 -0.768699
v 0.497977 1.670179 -1.115978
v 0.497977 1.420370 -1.420370
v 0.497977 1.115978 -1.670179
v 0.497977 0.768699 -1.855804
v 0.497977 0.391879 -1.970111
v 0.497977 -0.000001 -2.008707
v 0.497977 -0.391880 -1.970110
v 0.497977 -0.768700 -1.855803
v 0.497977 -1.115979 -1.670178
v 0.497977 -1.420372 -1.420370
v 0.497977 -1.670180 -1.115977
v 0.497977 -1.855804 -0.768698
v 0.497977 -1.970111 -0.391878
v 0.497977 -2.008707 0.000002
v 0.497978 -1.970110 0.391881
v 0.497978 -1.855803 0.768701
v 0.497978 -1.670178 1.115980
v 0.497978 -1.420369 1.420372
v 0.497978 -1.115976 1.670181
v 0.497978 -0.768696 1.855805
v 0.497978 -0.391876 1.970111
v 1.472960 0.000000 0.002897
v 1.472960 0.000565 0.002841
v 1.472960 0.001109 0.002676
v 1.472960 0.001610 0.002409
v 1.472960 0.002048 0.002048
v 1.472960 0.002409 0.001610
v 1.472960 0.002676 0.001109
v 1.472960 0.002841 0.000565
v 1.472960 0.002897 0.000000
v 1.472960 0.002841 -0.000565
v 1.472960 0.002676 -0.001108
v 1.472960 0.002409 -0.001609
v 1.472960 0.002048 -0.002048
v 1.472960 0.001610 -0.002408
v 1.472960 0.001109 -0.002676
v 1.472960 0.000565 -0.002841
v 1.472960 0.000000 -0.002896
v 1.472960 -0.000565 -0.002841
v 1.472960 -0.001108 -0.002676
v 1.472960 -0.001609 -0.002408
v 1.472960 -0.002048 -0.002048
v 1.472960 -0.002408 -0.001609
v 1.472960 -0.002676 -0.001108
v 1.472960 -0.002840 -0.000565
v 1.472960 -0.002896 0.000000
v 1.472960 -0.002840 0.000565
v 1.472960 -0.002676 0.001109
v 1.472960 -0.002408 0.001610
v 1.472960 -0.002048 0.002048
v 1.472960 -0.001609 0.002409
v 1.472960 -0.001108 0.002676
v 1.472960 -0.000565 0.002841
vt 0.000000 0.000000
vt 0.000000 0.000000
vt 0.000000 0.000000
vt 0.000000 0.000000
vt 0.000000 0.000000
vt 0.000000 0.000000
vt 0.000000 0.000000
vt 0.000000 0.000000
vt 0.000000 0.000000
vt 0.000000 0.000000
vt 0.000000 0.000000
vt 0.000000 0.000000
vt 0.000000 0.000000
vt 0.000000 0.000000
vt 0.000000 0.000000
vt 0.000000 0.000000
vt 0.000000 0.000000
vt 0.000000 0.000000
vt 0.000000 0.000000
vt 0.000000 0.000000
vt 0.000000 0.000000
vt 0.000000 0.000000
vt 0.000000 0.000000
vt 0.000000 0.000000
vt 0.000000 0.000000
vt 0.000000 0.000000
vt 0.000000 0.000000
vt 0.000000 0.000000
vt 0.000000 0.000000
vt 0.000000 0.000000
vt 0.000000 0.000000
vt 0.000000 0.000000
vt 0.000000 0.000000
vt 0.000000 0.000000
vt 0.000000 0.000000
vt 0.000000 0.000000
vt 0.000000 0.000000
vt 0.000000 0.000000
vt 0.000000 0.000000
vt 0.000000 0.000000
vt 0.000000 0.000000
vt 0.000000 0.000000
vt 0.000000 0.000000
vt 0.000000 0.000000
vt 0.000000 0.000000
vt 0.000000 0.000000
vt 0.000000 0.000000
vt 0.000000 0.000000
vt 0.000000 0.000000
vt 0.000000 0.000000
vt 0.000000 0.000000
vt 0.000000 0.000000
vt 0.000000 0.000000
vt 0.000000 0.000000
vt 0.000000 0.000000
vt 0.000000 0.000000
vt 0.000000 0.000000
vt 0.000000 0.000000
vt 0.000000 0.000000
vt 0.000000 0.000000
vt 0.000000 0.000000
vt 0.000000 0.000000
vt 0.000000 0.000000
vt 0.000000 0.000000
vn -0.8985 -0.1274 0.4200
vn -0.8985 -0.1274 -0.4200
vn -0.8985 0.2784 -0.3393
vn -0.8985 -0.0430 0.4368
vn -0.8985 -0.2069 -0.3871
vn -0.8985 0.2069 -0.3871
vn -0.8985 0.0430 0.4368
vn -0.8985 -0.2784 -0.3393
vn -0.8985 0.1274 -0.4200
vn -0.8985 0.1274 0.4200
vn -0.8985 -0.3393 -0.2784
vn -0.8985 0.0430 -0.4368
vn -0.8985 0.2069 0.3871
vn -0.8985 -0.3871 -0.2069
vn -0.8985 0.2784 0.3393
vn -0.8985 -0.4200 -0.1274
vn -0.8985 0.3393 0.2784
vn -0.8985 -0.4368 -0.0430
vn -0.8985 0.3871 0.2069
vn -0.8985 -0.4368 0.0430
vn -0.8985 0.4200 0.1274
vn -0.8985 -0.4200 0.1274
vn -0.8985 0.4368 0.0430
vn -0.8985 -0.3871 0.2069
vn -0.8985 0.4368 -0.0430
vn -0.8985 -0.3393 0.2784
vn -0.8985 0.4200 -0.1274
vn -0.8985 -0.2784 0.3393
vn -0.8985 0.3871 -0.2069
vn -0.8985 -0.2069 0.3871
vn -0.8985 -0.0430 -0.4368
vn -0.8985 0.3393 -0.2784
usemtl None
s off
f 111/97/65 112/98/65 144/99/65 143/100/65
f 98/101/66 99/102/66 131/103/66 130/104/66
f 125/105/67 126/106/67 158/107/67 157/108/67
f 112/98/68 113/109/68 145/110/68 144/99/68
f 99/102/69 100/111/69 132/112/69 131/103/69
f 126/106/70 127/113/70 159/114/70 158/107/70
f 113/109/71 114/115/71 146/116/71 145/110/71
f 100/111/72 101/117/72 133/118/72 132/112/72
f 127/113/73 128/119/73 160/120/73 159/114/73
f 114/115/74 115/121/74 147/122/74 146/116/74
f 101/117/75 102/123/75 134/124/75 133/118/75
f 128/119/76 97/125/76 129/126/76 160/120/76
f 115/121/77 116/127/77 148/128/77 147/122/77
f 102/123/78 103/129/78 135/130/78 134/124/78
f 116/127/79 117/131/79 149/132/79 148/128/79
f 103/129/80 104/133/80 136/134/80 135/130/80
f 117/131/81 118/135/81 150/136/81 149/132/81
f 104/133/82 105/137/82 137/138/82 136/134/82
f 118/135/83 119/139/83 151/140/83 150/136/83
f 105/137/84 106/141/84 138/142/84 137/138/84
f 119/139/85 120/143/85 152/144/85 151/140/85
f 106/141/86 107/145/86 139/146/86 138/142/86
f 120/143/87 121/147/87 153/148/87 152/144/87
f 107/145/88 108/149/88 140/150/88 139/146/88
f 121/147/89 122/151/89 154/152/89 153/148/89
f 108/149/90 109/153/90 141/154/90 140/150/90
f 122/151/91 123/155/91 155/156/91 154/152/91
f 109/153/92 110/157/92 142/158/92 141/154/92
f 123/155/93 124/159/93 156/160/93 155/156/93
f 110/157/94 111/97/94 143/100/94 142/158/94
f 97/125/95 98/101/95 130/104/95 129/126/95
f 124/159/96 125/105/96 157/108/96 156/160/96
