# Blender v2.80 (sub 75) OBJ File: 'untitled.blend'
# www.blender.org
mtllib spaceCraft.mtl
o Sphere
v -0.734013 0.547563 -0.948407
v -0.734013 -0.000000 -1.095126
v -0.734013 -0.948407 -0.547563
v -0.734014 0.948407 0.547563
v -0.734014 0.547563 0.948407
v -0.734014 -0.000000 1.095126
v -0.734014 -0.547563 0.948407
v -0.734014 -0.948407 0.547563
v -0.897841 0.948407 0.505882
v -1.017771 0.547563 0.876213
v -1.061668 -0.000000 1.011764
v -1.017771 -0.547563 0.876213
v -0.897841 -0.948407 0.505882
v -1.036727 0.948407 0.387185
v -1.258328 0.547563 0.670624
v -1.339440 -0.000000 0.774370
v -1.258328 -0.547563 0.670624
v -1.036727 -0.948407 0.387185
v -1.129528 0.948407 0.209543
v -1.419064 0.547563 0.362939
v -1.525042 -0.000000 0.419086
v -1.419064 -0.547563 0.362939
v -1.129528 -0.948407 0.209543
v -1.162115 0.948407 -0.000000
v -1.475507 0.547563 -0.000001
v -1.590216 -0.000000 -0.000001
v -1.475507 -0.547563 -0.000001
v -1.162115 -0.948407 -0.000000
v -1.129527 0.948407 -0.209544
v -1.419064 0.547563 -0.362940
v -1.525041 -0.000000 -0.419087
v -1.419064 -0.547563 -0.362940
v -1.129527 -0.948407 -0.209544
v -1.036727 0.948407 -0.387186
v -1.258328 0.547563 -0.670625
v -1.339440 -0.000000 -0.774371
v -1.258328 -0.547563 -0.670625
v -1.036727 -0.948407 -0.387186
v -0.897840 0.948407 -0.505882
v -1.017770 0.547563 -0.876214
v -1.061668 -0.000000 -1.011765
v -1.017770 -0.547563 -0.876214
v -0.897841 -0.948407 -0.505882
v -0.734013 1.095126 -0.000000
v -0.734013 0.948407 -0.547563
v -0.734013 -0.547563 -0.948407
v -0.734013 -1.095126 -0.000000
v 0.754933 0.547563 -0.948407
v 0.754933 -0.000000 -1.095126
v 0.754933 -0.948407 -0.547563
v 0.918760 0.948407 -0.505882
v 1.038690 0.547563 -0.876214
v 1.082587 -0.000000 -1.011764
v 1.038690 -0.547563 -0.876214
v 0.918760 -0.948407 -0.505882
v 1.057646 0.948407 -0.387185
v 1.279248 0.547563 -0.670625
v 1.360359 -0.000000 -0.774371
v 1.279248 -0.547563 -0.670625
v 1.057646 -0.948407 -0.387185
v 1.150447 0.948407 -0.209543
v 1.439983 0.547563 -0.362939
v 1.545961 -0.000000 -0.419086
v 1.439983 -0.547563 -0.362939
v 1.150447 -0.948407 -0.209543
v 1.183034 0.948407 0.000000
v 1.496426 0.547563 0.000000
v 1.611135 -0.000000 0.000000
v 1.496426 -0.547563 0.000000
v 1.183034 -0.948407 0.000000
v 1.150446 0.948407 0.209544
v 1.439983 0.547563 0.362940
v 1.545961 -0.000000 0.419087
v 1.439983 -0.547563 0.362940
v 1.150447 -0.948407 0.209544
v 1.057646 0.948407 0.387186
v 1.279247 0.547563 0.670625
v 1.360359 -0.000000 0.774371
v 1.279247 -0.547563 0.670625
v 1.057646 -0.948407 0.387186
v 0.918760 0.948407 0.505882
v 1.038689 0.547563 0.876214
v 1.082587 -0.000000 1.011765
v 1.038689 -0.547563 0.876214
v 0.918760 -0.948407 0.505883
v 0.754932 0.948407 0.547563
v 0.754932 0.547563 0.948407
v 0.754932 -0.000000 1.095126
v 0.754932 -0.547563 0.948407
v 0.754932 -0.948407 0.547563
v 0.754933 1.095126 0.000000
v 0.754933 0.948407 -0.547563
v 0.754933 -0.547563 -0.948407
v 0.754933 -1.095126 0.000000
v -0.719040 0.354039 -0.613213
v -0.719040 -0.000000 -0.708077
v -0.719040 -0.613213 -0.354039
v -0.719040 0.613213 0.354038
v -0.719040 0.354039 0.613213
v -0.719040 -0.000000 0.708077
v -0.719040 -0.354039 0.613213
v -0.719040 -0.613213 0.354038
v -0.719040 0.708077 -0.000000
v -0.719039 0.613213 -0.354039
v -0.719039 -0.354039 -0.613213
v -0.719040 -0.708077 -0.000000
v 0.739959 0.354039 -0.613213
v 0.739959 -0.000000 -0.708077
v 0.739959 -0.613213 -0.354038
v 0.739959 0.613213 0.354039
v 0.739958 0.354039 0.613213
v 0.739958 -0.000000 0.708077
v 0.739958 -0.354039 0.613213
v 0.739959 -0.613213 0.354039
v 0.739959 0.708077 0.000000
v 0.739959 0.613213 -0.354038
v 0.739959 -0.354039 -0.613213
v 0.739959 -0.708077 0.000000
vt 0.250000 0.500000
vt 0.250000 0.666667
vt 0.250000 0.666667
vt 0.250000 0.500000
vt 0.750000 0.166667
vt 0.718750 0.000000
vt 0.718750 0.000000
vt 0.750000 0.166667
vt 0.750000 0.166667
vt 0.750000 0.333333
vt 0.750000 0.333333
vt 0.750000 0.166667
vt 0.250000 0.833333
vt 0.281250 1.000000
vt 0.281250 1.000000
vt 0.250000 0.833333
vt 0.281250 0.000000
vt 0.250000 0.166667
vt 0.250000 0.166667
vt 0.281250 0.000000
vt 0.750000 0.833333
vt 0.781250 1.000000
vt 0.781250 1.000000
vt 0.750000 0.833333
vt 0.250000 0.333333
vt 0.250000 0.333333
vt 0.750000 0.500000
vt 0.750000 0.666667
vt 0.750000 0.666667
vt 0.750000 0.500000
vt 0.781250 0.000000
vt 0.781250 0.000000
vt 0.718750 1.000000
vt 0.750000 0.833333
vt 0.750000 0.833333
vt 0.718750 1.000000
vt 0.250000 0.833333
vt 0.250000 0.666667
vt 0.250000 0.666667
vt 0.250000 0.833333
vt 0.218750 0.000000
vt 0.250000 0.166667
vt 0.187500 0.166667
vt 0.187500 0.833333
vt 0.187500 0.666667
vt 0.250000 0.500000
vt 0.187500 0.500000
vt 0.250000 0.333333
vt 0.187500 0.333333
vt 0.218750 1.000000
vt 0.125000 0.333333
vt 0.125000 0.166667
vt 0.156250 1.000000
vt 0.125000 0.833333
vt 0.156250 0.000000
vt 0.125000 0.666667
vt 0.125000 0.500000
vt 0.062500 0.500000
vt 0.062500 0.333333
vt 0.062500 0.166667
vt 0.093750 1.000000
vt 0.062500 0.833333
vt 0.093750 0.000000
vt 0.062500 0.666667
vt 0.000000 0.666667
vt 0.000000 0.500000
vt 0.000000 0.333333
vt 0.000000 0.166667
vt 0.031250 1.000000
vt 0.000000 0.833333
vt 0.031250 0.000000
vt 0.968750 0.000000
vt 1.000000 0.166667
vt 0.937500 0.166667
vt 1.000000 0.666667
vt 1.000000 0.833333
vt 0.937500 0.833333
vt 0.937500 0.666667
vt 1.000000 0.500000
vt 0.937500 0.500000
vt 1.000000 0.333333
vt 0.937500 0.333333
vt 0.968750 1.000000
vt 0.875000 0.333333
vt 0.875000 0.166667
vt 0.906250 1.000000
vt 0.875000 0.833333
vt 0.906250 0.000000
vt 0.875000 0.666667
vt 0.875000 0.500000
vt 0.812500 0.500000
vt 0.812500 0.333333
vt 0.812500 0.166667
vt 0.843750 1.000000
vt 0.812500 0.833333
vt 0.843750 0.000000
vt 0.812500 0.666667
vt 0.750000 0.500000
vt 0.750000 0.666667
vt 0.687500 0.666667
vt 0.687500 0.500000
vt 0.750000 0.333333
vt 0.687500 0.333333
vt 0.687500 0.166667
vt 0.687500 0.833333
vt 0.625000 0.333333
vt 0.625000 0.166667
vt 0.656250 1.000000
vt 0.625000 0.833333
vt 0.656250 0.000000
vt 0.625000 0.666667
vt 0.625000 0.500000
vt 0.562500 0.500000
vt 0.562500 0.333333
vt 0.562500 0.166667
vt 0.593750 1.000000
vt 0.562500 0.833333
vt 0.593750 0.000000
vt 0.562500 0.666667
vt 0.500000 0.666667
vt 0.500000 0.500000
vt 0.500000 0.333333
vt 0.500000 0.166667
vt 0.531250 1.000000
vt 0.500000 0.833333
vt 0.531250 0.000000
vt 0.468750 0.000000
vt 0.437500 0.166667
vt 0.437500 0.833333
vt 0.437500 0.666667
vt 0.437500 0.500000
vt 0.437500 0.333333
vt 0.468750 1.000000
vt 0.375000 0.333333
vt 0.375000 0.166667
vt 0.406250 1.000000
vt 0.375000 0.833333
vt 0.406250 0.000000
vt 0.375000 0.666667
vt 0.375000 0.500000
vt 0.312500 0.500000
vt 0.312500 0.333333
vt 0.312500 0.166667
vt 0.343750 1.000000
vt 0.312500 0.833333
vt 0.343750 0.000000
vt 0.312500 0.666667
vt 0.750000 0.500000
vt 0.750000 0.333333
vt 0.250000 0.333333
vt 0.250000 0.166667
vt 0.781250 0.000000
vt 0.218750 1.000000
vt 0.218750 1.000000
vt 0.750000 0.666667
vt 0.250000 0.500000
vt 0.781250 1.000000
vt 0.218750 0.000000
vt 0.218750 0.000000
vn -0.9992 0.0104 0.0387
vn -0.9992 -0.0387 -0.0104
vn 0.9992 -0.0283 -0.0283
vn -0.9992 0.0387 0.0104
vn -0.9992 -0.0387 0.0104
vn 0.9992 0.0387 -0.0104
vn -0.9992 -0.0104 0.0387
vn 0.9992 0.0104 -0.0387
vn -0.9992 -0.0283 0.0283
vn 0.9992 -0.0387 -0.0104
vn -0.9992 0.0387 -0.0104
vn 0.9992 0.0283 0.0283
vn -0.0657 -0.9638 0.2583
vn -0.1771 0.6959 0.6959
vn -0.2386 0.2513 0.9380
vn -0.2386 -0.2513 0.9380
vn -0.1771 -0.6959 0.6959
vn -0.0657 0.9638 0.2583
vn -0.4837 -0.6676 0.5660
vn -0.1860 0.9581 0.2176
vn -0.1860 -0.9581 0.2176
vn -0.4837 0.6676 0.5660
vn -0.6317 0.2336 0.7392
vn -0.6317 -0.2336 0.7392
vn -0.8658 -0.2140 0.4523
vn -0.6863 -0.6329 0.3585
vn -0.2761 0.9502 0.1442
vn -0.2761 -0.9502 0.1442
vn -0.6863 0.6329 0.3585
vn -0.8658 0.2140 0.4523
vn -0.9676 0.2027 0.1505
vn -0.9676 -0.2027 0.1505
vn -0.7820 -0.6114 0.1216
vn -0.3238 0.9448 0.0504
vn -0.3238 -0.9448 0.0504
vn -0.7820 0.6114 0.1216
vn -0.3238 -0.9448 -0.0504
vn -0.7820 0.6114 -0.1216
vn -0.9676 0.2027 -0.1505
vn -0.9676 -0.2027 -0.1505
vn -0.7820 -0.6114 -0.1216
vn -0.3238 0.9448 -0.0504
vn -0.6863 -0.6329 -0.3585
vn -0.2761 0.9502 -0.1442
vn -0.2761 -0.9502 -0.1442
vn -0.6863 0.6329 -0.3585
vn -0.8658 0.2140 -0.4523
vn -0.8658 -0.2140 -0.4523
vn -0.6317 -0.2336 -0.7392
vn -0.4837 -0.6676 -0.5660
vn -0.1860 0.9581 -0.2176
vn -0.1860 -0.9581 -0.2176
vn -0.4837 0.6676 -0.5660
vn -0.6317 0.2336 -0.7392
vn -0.2386 0.2513 -0.9380
vn -0.2386 -0.2513 -0.9380
vn -0.1771 -0.6959 -0.6959
vn -0.0657 0.9638 -0.2583
vn -0.0657 -0.9638 -0.2583
vn -0.1771 0.6959 -0.6959
vn 0.2386 0.2513 -0.9380
vn 0.2386 -0.2513 -0.9380
vn 0.1771 -0.6959 -0.6959
vn 0.0657 0.9638 -0.2583
vn 0.0657 -0.9638 -0.2583
vn 0.1771 0.6959 -0.6959
vn 0.4837 -0.6676 -0.5660
vn 0.1860 0.9581 -0.2176
vn 0.1860 -0.9581 -0.2176
vn 0.4837 0.6676 -0.5660
vn 0.6317 0.2336 -0.7392
vn 0.6317 -0.2336 -0.7392
vn 0.8658 -0.2140 -0.4523
vn 0.6863 -0.6329 -0.3585
vn 0.2761 0.9502 -0.1442
vn 0.2761 -0.9502 -0.1442
vn 0.6863 0.6329 -0.3585
vn 0.8658 0.2140 -0.4523
vn 0.9676 0.2027 -0.1505
vn 0.9676 -0.2027 -0.1505
vn 0.7820 -0.6114 -0.1216
vn 0.3238 0.9448 -0.0504
vn 0.3238 -0.9448 -0.0504
vn 0.7820 0.6114 -0.1216
vn 0.3238 -0.9448 0.0504
vn 0.7820 0.6114 0.1216
vn 0.9676 0.2027 0.1505
vn 0.9676 -0.2027 0.1505
vn 0.7820 -0.6114 0.1216
vn 0.3238 0.9448 0.0504
vn 0.6863 -0.6329 0.3585
vn 0.2761 0.9502 0.1442
vn 0.2761 -0.9502 0.1442
vn 0.6863 0.6329 0.3585
vn 0.8658 0.2140 0.4523
vn 0.8658 -0.2140 0.4523
vn 0.6317 -0.2336 0.7392
vn 0.4837 -0.6676 0.5660
vn 0.1860 0.9581 0.2176
vn 0.1860 -0.9581 0.2176
vn 0.4837 0.6676 0.5660
vn 0.6317 0.2336 0.7392
vn 0.2386 0.2513 0.9380
vn 0.2386 -0.2513 0.9380
vn 0.1771 -0.6959 0.6959
vn 0.0657 0.9638 0.2583
vn 0.0657 -0.9638 0.2583
vn 0.1771 0.6959 0.6959
vn 0.0000 -0.2588 -0.9659
vn -0.0000 -0.7071 0.7071
vn 0.0000 -0.9659 -0.2588
vn -0.0000 0.9659 0.2588
vn -0.0000 0.7071 0.7071
vn 0.0000 0.7071 -0.7071
vn -0.0000 -0.2588 0.9659
vn 0.0000 -0.7071 -0.7071
vn 0.0000 0.9659 -0.2588
vn -0.0000 -0.9659 0.2588
vn 0.0000 0.2588 -0.9659
vn -0.0000 0.2588 0.9659
vn 0.9992 -0.0283 0.0283
vn -0.9992 0.0104 -0.0387
vn 0.9992 -0.0104 -0.0387
vn -0.9992 -0.0283 -0.0283
vn -0.9992 0.0283 0.0283
vn 0.9992 -0.0104 0.0387
vn 0.9992 -0.0387 0.0104
vn 0.9992 0.0104 0.0387
vn 0.9992 0.0283 -0.0283
vn -0.9992 -0.0104 -0.0387
vn -0.9992 0.0283 -0.0283
vn 0.9992 0.0387 0.0104
usemtl None
s off
f 88/1/1 87/2/1 111/3/1 112/4/1
f 50/5/2 94/6/2 118/7/2 109/8/2
f 3/9/3 46/10/3 105/11/3 97/12/3
f 86/13/4 91/14/4 115/15/4 110/16/4
f 94/17/5 90/18/5 114/19/5 118/20/5
f 45/21/6 44/22/6 103/23/6 104/24/6
f 89/25/7 88/1/7 112/4/7 113/26/7
f 2/27/8 1/28/8 95/29/8 96/30/8
f 90/18/9 89/25/9 113/26/9 114/19/9
f 47/31/10 3/9/10 97/12/10 106/32/10
f 91/33/11 92/34/11 116/35/11 115/36/11
f 4/37/12 5/38/12 99/39/12 98/40/12
f 47/41/13 8/42/13 13/43/13
f 5/38/14 4/37/14 9/44/14 10/45/14
f 6/46/15 5/38/15 10/45/15 11/47/15
f 7/48/16 6/46/16 11/47/16 12/49/16
f 8/42/17 7/48/17 12/49/17 13/43/17
f 4/37/18 44/50/18 9/44/18
f 13/43/19 12/49/19 17/51/19 18/52/19
f 9/44/20 44/53/20 14/54/20
f 47/55/21 13/43/21 18/52/21
f 10/45/22 9/44/22 14/54/22 15/56/22
f 11/47/23 10/45/23 15/56/23 16/57/23
f 12/49/24 11/47/24 16/57/24 17/51/24
f 17/51/25 16/57/25 21/58/25 22/59/25
f 18/52/26 17/51/26 22/59/26 23/60/26
f 14/54/27 44/61/27 19/62/27
f 47/63/28 18/52/28 23/60/28
f 15/56/29 14/54/29 19/62/29 20/64/29
f 16/57/30 15/56/30 20/64/30 21/58/30
f 21/58/31 20/64/31 25/65/31 26/66/31
f 22/59/32 21/58/32 26/66/32 27/67/32
f 23/60/33 22/59/33 27/67/33 28/68/33
f 19/62/34 44/69/34 24/70/34
f 47/71/35 23/60/35 28/68/35
f 20/64/36 19/62/36 24/70/36 25/65/36
f 47/72/37 28/73/37 33/74/37
f 25/75/38 24/76/38 29/77/38 30/78/38
f 26/79/39 25/75/39 30/78/39 31/80/39
f 27/81/40 26/79/40 31/80/40 32/82/40
f 28/73/41 27/81/41 32/82/41 33/74/41
f 24/76/42 44/83/42 29/77/42
f 33/74/43 32/82/43 37/84/43 38/85/43
f 29/77/44 44/86/44 34/87/44
f 47/88/45 33/74/45 38/85/45
f 30/78/46 29/77/46 34/87/46 35/89/46
f 31/80/47 30/78/47 35/89/47 36/90/47
f 32/82/48 31/80/48 36/90/48 37/84/48
f 37/84/49 36/90/49 41/91/49 42/92/49
f 38/85/50 37/84/50 42/92/50 43/93/50
f 34/87/51 44/94/51 39/95/51
f 47/96/52 38/85/52 43/93/52
f 35/89/53 34/87/53 39/95/53 40/97/53
f 36/90/54 35/89/54 40/97/54 41/91/54
f 41/91/55 40/97/55 1/28/55 2/27/55
f 42/92/56 41/91/56 2/27/56 46/10/56
f 43/93/57 42/92/57 46/10/57 3/9/57
f 39/95/58 44/22/58 45/21/58
f 47/31/59 43/93/59 3/9/59
f 40/97/60 39/95/60 45/21/60 1/28/60
f 49/98/61 48/99/61 52/100/61 53/101/61
f 93/102/62 49/98/62 53/101/62 54/103/62
f 50/5/63 93/102/63 54/103/63 55/104/63
f 92/34/64 91/33/64 51/105/64
f 94/6/65 50/5/65 55/104/65
f 48/99/66 92/34/66 51/105/66 52/100/66
f 55/104/67 54/103/67 59/106/67 60/107/67
f 51/105/68 91/108/68 56/109/68
f 94/110/69 55/104/69 60/107/69
f 52/100/70 51/105/70 56/109/70 57/111/70
f 53/101/71 52/100/71 57/111/71 58/112/71
f 54/103/72 53/101/72 58/112/72 59/106/72
f 59/106/73 58/112/73 63/113/73 64/114/73
f 60/107/74 59/106/74 64/114/74 65/115/74
f 56/109/75 91/116/75 61/117/75
f 94/118/76 60/107/76 65/115/76
f 57/111/77 56/109/77 61/117/77 62/119/77
f 58/112/78 57/111/78 62/119/78 63/113/78
f 63/113/79 62/119/79 67/120/79 68/121/79
f 64/114/80 63/113/80 68/121/80 69/122/80
f 65/115/81 64/114/81 69/122/81 70/123/81
f 61/117/82 91/124/82 66/125/82
f 94/126/83 65/115/83 70/123/83
f 62/119/84 61/117/84 66/125/84 67/120/84
f 94/127/85 70/123/85 75/128/85
f 67/120/86 66/125/86 71/129/86 72/130/86
f 68/121/87 67/120/87 72/130/87 73/131/87
f 69/122/88 68/121/88 73/131/88 74/132/88
f 70/123/89 69/122/89 74/132/89 75/128/89
f 66/125/90 91/133/90 71/129/90
f 75/128/91 74/132/91 79/134/91 80/135/91
f 71/129/92 91/136/92 76/137/92
f 94/138/93 75/128/93 80/135/93
f 72/130/94 71/129/94 76/137/94 77/139/94
f 73/131/95 72/130/95 77/139/95 78/140/95
f 74/132/96 73/131/96 78/140/96 79/134/96
f 79/134/97 78/140/97 83/141/97 84/142/97
f 80/135/98 79/134/98 84/142/98 85/143/98
f 76/137/99 91/144/99 81/145/99
f 94/146/100 80/135/100 85/143/100
f 77/139/101 76/137/101 81/145/101 82/147/101
f 78/140/102 77/139/102 82/147/102 83/141/102
f 83/141/103 82/147/103 87/2/103 88/1/103
f 84/142/104 83/141/104 88/1/104 89/25/104
f 85/143/105 84/142/105 89/25/105 90/18/105
f 81/145/106 91/14/106 86/13/106
f 94/17/107 85/143/107 90/18/107
f 82/147/108 81/145/108 86/13/108 87/2/108
f 105/11/109 96/30/109 108/148/109 117/149/109
f 101/150/110 102/151/110 114/19/110 113/26/110
f 106/32/111 97/12/111 109/8/111 118/152/111
f 103/153/112 98/40/112 110/16/112 115/154/112
f 98/40/113 99/39/113 111/3/113 110/16/113
f 95/29/114 104/24/114 116/35/114 107/155/114
f 100/156/115 101/150/115 113/26/115 112/4/115
f 97/12/116 105/11/116 117/149/116 109/8/116
f 104/24/117 103/23/117 115/157/117 116/35/117
f 102/151/118 106/158/118 118/159/118 114/19/118
f 96/30/119 95/29/119 107/155/119 108/148/119
f 99/39/120 100/156/120 112/4/120 111/3/120
f 7/48/121 8/42/121 102/151/121 101/150/121
f 48/99/122 49/98/122 108/148/122 107/155/122
f 46/10/123 2/27/123 96/30/123 105/11/123
f 93/102/124 50/5/124 109/8/124 117/149/124
f 87/2/125 86/13/125 110/16/125 111/3/125
f 6/46/126 7/48/126 101/150/126 100/156/126
f 8/42/127 47/41/127 106/158/127 102/151/127
f 5/38/128 6/46/128 100/156/128 99/39/128
f 1/28/129 45/21/129 104/24/129 95/29/129
f 49/98/130 93/102/130 117/149/130 108/148/130
f 92/34/131 48/99/131 107/155/131 116/35/131
f 44/50/132 4/37/132 98/40/132 103/153/132
