# Blender v2.81 (sub 16) OBJ File: 'obstacle.blend'
# www.blender.org
mtllib obstacle.mtl
o Cylinder
v -0.000000 -1.325609 -0.923180
v -0.120573 -1.166536 -1.017306
v 0.120573 -1.166536 -1.017306
v -0.000000 1.325609 -0.923180
v 0.120573 1.166536 -1.017306
v -0.120573 1.166536 -1.017306
v 0.542632 -1.325609 -0.746869
v 0.500412 -1.166536 -0.893889
v 0.695503 -1.166536 -0.752147
v 0.542632 1.325609 -0.746869
v 0.695503 1.166536 -0.752147
v 0.500412 1.166536 -0.893889
v 0.877997 -1.325609 -0.285278
v 0.930256 -1.166536 -0.429037
v 1.004775 -1.166536 -0.199693
v 0.877997 1.325609 -0.285278
v 1.004775 1.166536 -0.199693
v 0.930256 1.166536 -0.429037
v 0.877997 -1.325609 0.285278
v 1.004775 -1.166536 0.199693
v 0.930256 -1.166536 0.429037
v 0.877997 1.325609 0.285278
v 0.930256 1.166536 0.429037
v 1.004775 1.166536 0.199693
v 0.542632 -1.325609 0.746869
v 0.695503 -1.166536 0.752147
v 0.500412 -1.166536 0.893889
v 0.542632 1.325609 0.746869
v 0.500412 1.166536 0.893889
v 0.695503 1.166536 0.752147
v -0.000000 -1.325609 0.923180
v 0.120573 -1.166536 1.017306
v -0.120573 -1.166536 1.017306
v -0.000000 1.325609 0.923180
v -0.120573 1.166536 1.017306
v 0.120573 1.166536 1.017306
v -0.542632 -1.325609 0.746868
v -0.500412 -1.166536 0.893889
v -0.695503 -1.166536 0.752147
v -0.542632 1.325609 0.746868
v -0.695503 1.166536 0.752147
v -0.500412 1.166536 0.893889
v -0.877997 -1.325609 0.285279
v -0.930256 -1.166536 0.429037
v -1.004775 -1.166536 0.199693
v -0.877997 1.325609 0.285279
v -1.004775 1.166536 0.199693
v -0.930256 1.166536 0.429037
v -0.877997 -1.325609 -0.285279
v -1.004775 -1.166536 -0.199693
v -0.930256 -1.166536 -0.429037
v -0.877997 1.325609 -0.285279
v -0.930256 1.166536 -0.429037
v -1.004775 1.166536 -0.199693
v -0.542632 -1.325609 -0.746869
v -0.695503 -1.166536 -0.752147
v -0.500412 -1.166536 -0.893889
v -0.542632 1.325609 -0.746869
v -0.500412 1.166536 -0.893889
v -0.695503 1.166536 -0.752147
vt 0.080583 0.530000
vt 0.080583 0.970000
vt 0.019416 0.970000
vt 0.019416 0.530000
vt 0.780584 0.530000
vt 0.780584 0.970000
vt 0.719416 0.970000
vt 0.719416 0.530000
vt 0.680583 0.530000
vt 0.680583 0.970000
vt 0.619416 0.970000
vt 0.619416 0.530000
vt 0.580584 0.530000
vt 0.580583 0.970000
vt 0.519416 0.970000
vt 0.519416 0.530000
vt 0.480584 0.530000
vt 0.480584 0.970000
vt 0.419416 0.970000
vt 0.419416 0.530000
vt 0.380584 0.530000
vt 0.380584 0.970000
vt 0.319416 0.970000
vt 0.319416 0.530000
vt 0.280584 0.530000
vt 0.280584 0.970000
vt 0.219416 0.970000
vt 0.219416 0.530000
vt 0.180584 0.530000
vt 0.180584 0.970000
vt 0.119416 0.970000
vt 0.119416 0.530000
vt 0.880584 0.530000
vt 0.880584 0.970000
vt 0.819416 0.970000
vt 0.819416 0.530000
vt 0.373269 0.419665
vt 0.250000 0.459718
vt 0.126731 0.419665
vt 0.050546 0.314806
vt 0.050546 0.185194
vt 0.126731 0.080335
vt 0.250000 0.040282
vt 0.373269 0.080335
vt 0.449454 0.185194
vt 0.449454 0.314806
vt 0.980584 0.530000
vt 0.980584 0.970000
vt 0.919416 0.970000
vt 0.919416 0.530000
vt 0.750000 0.459718
vt 0.722610 0.481100
vt 0.777390 0.481100
vt 0.277390 0.481100
vt 0.222610 0.481100
vt 0.873269 0.419665
vt 0.863678 0.453064
vt 0.907997 0.420864
vt 0.407997 0.420864
vt 0.363678 0.453064
vt 0.949453 0.314806
vt 0.961325 0.347464
vt 0.978254 0.295364
vt 0.478254 0.295364
vt 0.461325 0.347464
vt 0.949454 0.185194
vt 0.978254 0.204636
vt 0.961325 0.152536
vt 0.461325 0.152536
vt 0.478254 0.204636
vt 0.873269 0.080335
vt 0.907997 0.079136
vt 0.863678 0.046936
vt 0.363678 0.046936
vt 0.407997 0.079136
vt 0.750000 0.040282
vt 0.777390 0.018900
vt 0.722610 0.018900
vt 0.222610 0.018900
vt 0.277390 0.018900
vt 0.626731 0.080335
vt 0.636322 0.046936
vt 0.592003 0.079136
vt 0.092003 0.079136
vt 0.136322 0.046936
vt 0.550546 0.185194
vt 0.538675 0.152536
vt 0.521746 0.204636
vt 0.021746 0.204636
vt 0.038675 0.152536
vt 0.550546 0.314806
vt 0.521746 0.295364
vt 0.538675 0.347464
vt 0.038675 0.347464
vt 0.021746 0.295364
vt 0.626731 0.419665
vt 0.592003 0.420864
vt 0.636322 0.453064
vt 0.136322 0.453064
vt 0.092003 0.420864
vt 0.906309 0.500000
vt 0.993691 0.500000
vt 0.993691 1.000000
vt 0.906309 1.000000
vt -0.000000 0.970000
vt -0.000000 0.530000
vt 0.806309 0.500000
vt 0.893691 0.500000
vt 0.893691 1.000000
vt 0.806309 1.000000
vt 0.706309 0.500000
vt 0.793691 0.500000
vt 0.793691 1.000000
vt 0.706309 1.000000
vt 0.606309 0.500000
vt 0.693691 0.500000
vt 0.693691 1.000000
vt 0.606309 1.000000
vt 0.506309 0.500000
vt 0.593691 0.500000
vt 0.593691 1.000000
vt 0.506309 1.000000
vt 0.406309 0.500000
vt 0.493691 0.500000
vt 0.493691 1.000000
vt 0.406309 1.000000
vt 0.306309 0.500000
vt 0.393691 0.500000
vt 0.393691 1.000000
vt 0.306309 1.000000
vt 0.206309 0.500000
vt 0.293691 0.500000
vt 0.293691 1.000000
vt 0.206309 1.000000
vt 0.106309 0.500000
vt 0.193691 0.500000
vt 0.193691 1.000000
vt 0.106309 1.000000
vt 0.006309 0.500000
vt 0.093691 0.500000
vt 0.093691 1.000000
vt 0.006309 1.000000
vn -0.3090 0.0000 -0.9511
vn 1.0000 0.0000 0.0000
vn 0.8090 0.0000 0.5878
vn 0.3090 0.0000 0.9511
vn -0.3090 0.0000 0.9511
vn -0.8090 0.0000 0.5878
vn -1.0000 0.0000 0.0000
vn -0.8090 -0.0000 -0.5878
vn 0.8090 0.0000 -0.5878
vn 0.0000 1.0000 -0.0000
vn 0.3090 0.0000 -0.9511
vn 0.0000 -0.5092 -0.8606
vn 0.0000 0.5092 -0.8606
vn 0.5059 -0.5092 -0.6963
vn 0.5059 0.5092 -0.6963
vn 0.8185 -0.5092 -0.2659
vn 0.8185 0.5092 -0.2659
vn 0.8185 -0.5092 0.2659
vn 0.8185 0.5092 0.2659
vn 0.5059 -0.5092 0.6963
vn 0.5059 0.5092 0.6963
vn 0.0000 -0.5092 0.8606
vn 0.0000 0.5092 0.8606
vn -0.5059 -0.5092 0.6963
vn -0.5059 0.5092 0.6963
vn -0.8185 -0.5092 0.2659
vn -0.8185 0.5092 0.2659
vn -0.8185 -0.5092 -0.2659
vn -0.8185 0.5092 -0.2659
vn -0.5059 -0.5092 -0.6963
vn -0.5059 0.5092 -0.6963
vn 0.2417 -0.6233 -0.7437
vn 0.2417 0.6233 -0.7437
vn 0.0000 0.0000 -1.0000
vn 0.5878 0.0000 -0.8090
vn 0.6327 -0.6233 -0.4597
vn 0.6327 0.6233 -0.4597
vn 0.9511 0.0000 -0.3090
vn 0.7820 -0.6233 0.0000
vn 0.7820 0.6233 0.0000
vn 0.9511 0.0000 0.3090
vn 0.6327 -0.6233 0.4597
vn 0.6327 0.6233 0.4597
vn 0.5878 0.0000 0.8090
vn 0.2417 -0.6233 0.7437
vn 0.2417 0.6233 0.7437
vn -0.0000 0.0000 1.0000
vn -0.2417 -0.6233 0.7437
vn -0.2417 0.6233 0.7437
vn -0.5878 0.0000 0.8090
vn -0.6327 -0.6233 0.4597
vn -0.6327 0.6233 0.4597
vn -0.9511 0.0000 0.3090
vn -0.7820 -0.6233 0.0000
vn -0.7820 0.6233 0.0000
vn -0.9511 0.0000 -0.3090
vn -0.6327 -0.6233 -0.4597
vn -0.6327 0.6233 -0.4597
vn -0.5878 -0.0000 -0.8090
vn -0.2417 -0.6233 -0.7437
vn -0.2417 0.6233 -0.7437
vn 0.0000 -1.0000 -0.0000
usemtl None
s off
f 57/1/1 59/2/1 6/3/1 2/4/1
f 15/5/2 17/6/2 24/7/2 20/8/2
f 21/9/3 23/10/3 30/11/3 26/12/3
f 27/13/4 29/14/4 36/15/4 32/16/4
f 33/17/5 35/18/5 42/19/5 38/20/5
f 39/21/6 41/22/6 48/23/6 44/24/6
f 45/25/7 47/26/7 54/27/7 50/28/7
f 51/29/8 53/30/8 60/31/8 56/32/8
f 9/33/9 11/34/9 18/35/9 14/36/9
f 10/37/10 4/38/10 58/39/10 52/40/10 46/41/10 40/42/10 34/43/10 28/44/10 22/45/10 16/46/10
f 3/47/11 5/48/11 12/49/11 8/50/11
f 1/51/12 2/52/12 3/53/12
f 4/38/13 5/54/13 6/55/13
f 7/56/14 8/57/14 9/58/14
f 10/37/15 11/59/15 12/60/15
f 13/61/16 14/62/16 15/63/16
f 16/46/17 17/64/17 18/65/17
f 19/66/18 20/67/18 21/68/18
f 22/45/19 23/69/19 24/70/19
f 25/71/20 26/72/20 27/73/20
f 28/44/21 29/74/21 30/75/21
f 31/76/22 32/77/22 33/78/22
f 34/43/23 35/79/23 36/80/23
f 37/81/24 38/82/24 39/83/24
f 40/42/25 41/84/25 42/85/25
f 43/86/26 44/87/26 45/88/26
f 46/41/27 47/89/27 48/90/27
f 49/91/28 50/92/28 51/93/28
f 52/40/29 53/94/29 54/95/29
f 55/96/30 56/97/30 57/98/30
f 58/39/31 59/99/31 60/100/31
f 3/47/32 8/50/32 7/101/32 1/102/32
f 12/49/33 5/48/33 4/103/33 10/104/33
f 2/4/34 6/3/34 5/105/34 3/106/34
f 11/34/35 9/33/35 8/50/35 12/49/35
f 9/33/36 14/36/36 13/107/36 7/108/36
f 18/35/37 11/34/37 10/109/37 16/110/37
f 17/6/38 15/5/38 14/36/38 18/35/38
f 15/5/39 20/8/39 19/111/39 13/112/39
f 24/7/40 17/6/40 16/113/40 22/114/40
f 23/10/41 21/9/41 20/8/41 24/7/41
f 21/9/42 26/12/42 25/115/42 19/116/42
f 30/11/43 23/10/43 22/117/43 28/118/43
f 29/14/44 27/13/44 26/12/44 30/11/44
f 27/13/45 32/16/45 31/119/45 25/120/45
f 36/15/46 29/14/46 28/121/46 34/122/46
f 35/18/47 33/17/47 32/16/47 36/15/47
f 33/17/48 38/20/48 37/123/48 31/124/48
f 42/19/49 35/18/49 34/125/49 40/126/49
f 41/22/50 39/21/50 38/20/50 42/19/50
f 39/21/51 44/24/51 43/127/51 37/128/51
f 48/23/52 41/22/52 40/129/52 46/130/52
f 47/26/53 45/25/53 44/24/53 48/23/53
f 45/25/54 50/28/54 49/131/54 43/132/54
f 54/27/55 47/26/55 46/133/55 52/134/55
f 53/30/56 51/29/56 50/28/56 54/27/56
f 51/29/57 56/32/57 55/135/57 49/136/57
f 60/31/58 53/30/58 52/137/58 58/138/58
f 59/2/59 57/1/59 56/32/59 60/31/59
f 57/1/60 2/4/60 1/139/60 55/140/60
f 6/3/61 59/2/61 58/141/61 4/142/61
f 1/51/62 7/56/62 13/61/62 19/66/62 25/71/62 31/76/62 37/81/62 43/86/62 49/91/62 55/96/62
